<?xml version="1.0" encoding="UTF-8"?>
<svg version="1.1" xmlns="http://www.w3.org/2000/svg" width="64" height="64">
<path d="M0 0 C2.9375 1.3125 2.9375 1.3125 4.875 2.375 C7.105496 3.52002447 7.105496 3.52002447 10.5 3.6875 C13.9375 4.3125 13.9375 4.3125 15.6875 6.0625 C16.1 6.805 16.5125 7.5475 16.9375 8.3125 C18.99156471 11.98978574 18.99156471 11.98978574 21.99609375 14.8515625 C25.01692035 18.68077932 24.59670705 22.44640303 24.5625 27.1875 C24.59472656 28.07308594 24.62695312 28.95867188 24.66015625 29.87109375 C24.66970974 36.28148458 24.66970974 36.28148458 22.62133789 39.16577148 C21.01171875 40.73828125 21.01171875 40.73828125 19.4050293 42.0324707 C17.11861563 44.02675899 16.14503024 46.5796684 14.9375 49.3125 C13.43638649 50.81361351 11.81757068 50.79268751 9.75 51.1875 C6.59942165 51.835562 4.62435056 52.48442518 1.75 54.0625 C-1.0625 55.3125 -1.0625 55.3125 -4.1875 54.625 C-5.81482144 53.88209238 -7.43148901 53.11015119 -9 52.25 C-11.230496 51.10497553 -11.230496 51.10497553 -14.625 50.9375 C-18.0625 50.3125 -18.0625 50.3125 -19.8125 48.5625 C-20.43125 47.44875 -20.43125 47.44875 -21.0625 46.3125 C-23.11656471 42.63521426 -23.11656471 42.63521426 -26.12109375 39.7734375 C-29.14192035 35.94422068 -28.72170705 32.17859697 -28.6875 27.4375 C-28.71972656 26.55191406 -28.75195312 25.66632812 -28.78515625 24.75390625 C-28.79470974 18.34351542 -28.79470974 18.34351542 -26.74633789 15.45922852 C-25.13671875 13.88671875 -25.13671875 13.88671875 -23.5300293 12.5925293 C-21.24361563 10.59824101 -20.27003024 8.0453316 -19.0625 5.3125 C-17.46505537 3.71505537 -15.50545006 3.80731702 -13.3125 3.4375 C-10.03559639 2.83238996 -8.15839594 2.37352469 -5.3125 0.5625 C-3.0625 -0.6875 -3.0625 -0.6875 0 0 Z " fill="#02C6FD" transform="translate(34.0625,4.6875)"/>
<path d="M0 0 C0.99 0.33 1.98 0.66 3 1 C1.38989473 5.07376031 -1.53822271 7.76507069 -4.625 10.75 C-5.140625 11.25660156 -5.65625 11.76320313 -6.1875 12.28515625 C-7.45383339 13.52803902 -8.7263144 14.76465276 -10 16 C-13.76488042 14.27845212 -16.15063897 12.00765886 -19 9 C-18.67 8.01 -18.34 7.02 -18 6 C-15.33333333 7.33333333 -12.66666667 8.66666667 -10 10 C-6.7 6.7 -3.4 3.4 0 0 Z " fill="#FBFEFE" transform="translate(41,25)"/>
</svg>
